<?xml version="1.0" encoding="utf-8"?>
<!-- Generator: Adobe Illustrator 20.1.0, SVG Export Plug-In . SVG Version: 6.00 Build 0)  -->
<svg version="1.1" id="Layer_1" xmlns="http://www.w3.org/2000/svg" xmlns:xlink="http://www.w3.org/1999/xlink" x="0px" y="0px"
	 viewBox="0 0 95.2 17.3" style="enable-background:new 0 0 95.2 17.3;" xml:space="preserve">
<style type="text/css">
	.st0{fill:#FFFFFF;stroke:#FFFFFF;stroke-miterlimit:10;}
	.st1{fill:none;stroke:#FFFFFF;stroke-miterlimit:10;}
	.st2{fill:#FFFFFF;}
</style>
<rect x="8.7" y="1.7" class="st0" width="7.2" height="14.4"/>
<rect x="1.4" y="1.7" class="st1" width="7.2" height="14.4"/>
<g>
	<path class="st2" d="M21,1.7h5.1v1.2h-3.9v2.5h3.3v1.1h-3.3V10H21V1.7z"/>
	<path class="st2" d="M27.5,1.7h3.1c0.7,0,1.2,0.2,1.6,0.5c0.5,0.4,0.8,1,0.8,1.8c0,1.1-0.5,1.9-1.6,2.3l1.9,3.7H32l-1.7-3.5h-1.6
		V10h-1.2V1.7z M28.7,5.3h1.8c0.5,0,0.8-0.1,1-0.4c0.2-0.2,0.3-0.6,0.3-0.9c0-0.4-0.1-0.7-0.4-0.9c-0.2-0.2-0.5-0.3-0.9-0.3h-1.9
		V5.3z"/>
	<path class="st2" d="M34.9,1.7H40v1.2h-3.9v2.4h3.3v1.1h-3.3v2.4H40V10h-5.1V1.7z"/>
	<path class="st2" d="M41.6,1.7h2.8c1.1,0,1.9,0.5,2.4,1.4c0.2,0.3,0.3,0.6,0.4,1c0,0.3,0.1,0.9,0.1,1.8c0,0.9,0,1.5-0.1,1.9
		c0,0.2-0.1,0.3-0.1,0.5c-0.1,0.1-0.1,0.3-0.2,0.4c-0.2,0.4-0.6,0.7-1,1c-0.4,0.3-0.9,0.4-1.5,0.4h-2.7V1.7z M42.8,8.8h1.5
		c0.7,0,1.2-0.2,1.5-0.7C45.9,7.9,46,7.7,46,7.4c0-0.3,0-0.8,0-1.5c0-0.7,0-1.2,0-1.6c0-0.3-0.1-0.6-0.3-0.8
		c-0.3-0.5-0.8-0.7-1.4-0.7h-1.5V8.8z"/>
	<path class="st2" d="M49.2,1.7h3.1c0.7,0,1.2,0.2,1.6,0.5c0.5,0.4,0.8,1,0.8,1.8c0,1.1-0.5,1.9-1.6,2.3l1.9,3.7h-1.4L52,6.4h-1.6
		V10h-1.2V1.7z M50.4,5.3h1.8c0.5,0,0.8-0.1,1-0.4c0.2-0.2,0.3-0.6,0.3-0.9c0-0.4-0.1-0.7-0.4-0.9c-0.2-0.2-0.5-0.3-0.9-0.3h-1.9
		V5.3z"/>
	<path class="st2" d="M56.5,1.7h1.2V10h-1.2V1.7z"/>
	<path class="st2" d="M59.8,1.7H61v4.3h0l3.3-4.3h1.4l-2.6,3.3l2.8,5h-1.4l-2.2-4.1L61,7.4V10h-1.2V1.7z"/>
	<path class="st2" d="M67.5,8c0.6,0.5,1.4,0.8,2.3,0.8c1,0,1.6-0.4,1.6-1.2c0-0.6-0.3-1-1-1.1c-0.3,0-0.7-0.1-1.1-0.2
		C68.5,6.2,68,6,67.7,5.6c-0.4-0.4-0.6-0.9-0.6-1.5c0-0.7,0.2-1.3,0.7-1.8c0.5-0.4,1.1-0.7,1.9-0.7c1,0,1.9,0.3,2.6,0.9l-0.7,1
		c-0.6-0.4-1.3-0.6-2-0.6c-0.4,0-0.7,0.1-0.9,0.3c-0.3,0.2-0.4,0.5-0.4,0.9c0,0.2,0.1,0.5,0.3,0.6C68.8,4.9,69,5,69.4,5.1
		c0.2,0,0.5,0.1,0.9,0.1c0.8,0.1,1.3,0.4,1.7,0.8c0.4,0.4,0.5,1,0.5,1.5c0,1.6-1,2.4-2.8,2.4c-1.2,0-2.2-0.4-3.1-1.1L67.5,8z"/>
	<path class="st2" d="M75.7,2.8h-2.2V1.7h5.6v1.1h-2.2V10h-1.2V2.8z"/>
	<path class="st2" d="M80.4,1.7h5.1v1.2h-3.9v2.4h3.3v1.1h-3.3v2.4h3.9V10h-5.1V1.7z"/>
	<path class="st2" d="M87.1,1.7h1.1l3.6,5.9h0V1.7h1.2V10H92l-3.6-5.9h0V10h-1.2V1.7z"/>
</g>
<g>
	<path class="st2" d="M23.3,14.3h-1.6v1.8h-0.6V12h0.6v1.8h1.6V12h0.6v4.2h-0.6V14.3z"/>
	<path class="st2" d="M24.9,14.1c0-0.5,0-0.8,0-1c0-0.2,0.1-0.3,0.1-0.4c0.1-0.2,0.3-0.4,0.5-0.5c0.2-0.2,0.5-0.2,0.8-0.2
		c0.3,0,0.6,0.1,0.8,0.2c0.2,0.2,0.4,0.3,0.5,0.5c0.1,0.1,0.1,0.2,0.1,0.4c0,0.2,0,0.5,0,1c0,0.5,0,0.8,0,1c0,0.2-0.1,0.3-0.1,0.4
		c-0.1,0.2-0.2,0.4-0.5,0.5c-0.2,0.2-0.5,0.2-0.8,0.2c-0.3,0-0.6-0.1-0.8-0.2c-0.2-0.1-0.4-0.3-0.5-0.5c0-0.1-0.1-0.1-0.1-0.2
		c0-0.1,0-0.1-0.1-0.2C24.9,14.9,24.9,14.5,24.9,14.1z M25.5,14.1c0,0.4,0,0.7,0,0.8c0,0.1,0.1,0.3,0.2,0.4c0.1,0.1,0.2,0.2,0.3,0.2
		c0.1,0.1,0.2,0.1,0.4,0.1c0.1,0,0.3,0,0.4-0.1c0.1-0.1,0.2-0.1,0.2-0.2c0.1-0.1,0.1-0.2,0.2-0.4c0-0.1,0-0.4,0-0.8
		c0-0.4,0-0.7,0-0.8c0-0.1-0.1-0.3-0.2-0.3c-0.1-0.1-0.1-0.2-0.2-0.2c-0.1-0.1-0.2-0.1-0.4-0.1c-0.1,0-0.3,0-0.4,0.1
		c-0.1,0.1-0.2,0.1-0.3,0.2c-0.1,0.1-0.1,0.2-0.2,0.3C25.5,13.4,25.5,13.7,25.5,14.1z"/>
	<path class="st2" d="M29.3,12.5h-1.1V12h2.8v0.6h-1.1v3.6h-0.6V12.5z"/>
	<path class="st2" d="M31.7,12h2.6v0.6h-2v1.2H34v0.6h-1.7v1.2h2v0.6h-2.6V12z"/>
	<path class="st2" d="M35.1,12h0.6v3.6h2v0.6h-2.6V12z"/>
	<path class="st2" d="M38.5,12h0.6v3.6h2v0.6h-2.6V12z"/>
</g>
</svg>
